<?xml version="1.0" encoding="UTF-8"?>
<svg id="Layer_1" data-name="Layer 1" xmlns="http://www.w3.org/2000/svg" viewBox="0 0 1000 130">
  <defs>
    <style>
      .cls-1, .cls-2 {
        fill: #50b7ed;
      }

      .cls-2 {
        fill-rule: evenodd;
      }
    </style>
  </defs>
  <path class="cls-1" d="m617.61.04v32.31h-50.67v17.99h36.45v30.65h-36.45v49.01h-40.46V.04h91.13Z"/>
  <path class="cls-1" d="m932.93.04c13.49,0,25.27,2.75,35.36,8.26,10.21,5.51,18.04,13.15,23.51,22.94,5.47,9.79,8.2,20.93,8.2,33.41s-2.73,23.49-8.2,33.41c-5.47,9.91-13.3,17.74-23.51,23.5-10.08,5.63-21.87,8.44-35.36,8.44h-53.77V.04h53.77Zm-3.65,93.61c9.11,0,16.34-2.51,21.69-7.53,5.35-5.02,8.02-12.18,8.02-21.48s-2.67-16.46-8.02-21.48c-5.35-5.02-12.58-7.53-21.69-7.53h-9.66v58h9.66Z"/>
  <path class="cls-2" d="m752.03,26.03c8.1,10.86,12.9,24.36,12.9,38.99s-4.8,28.13-12.9,38.99c11.77,15.78,30.51,25.99,51.62,25.99,35.63,0,64.52-29.09,64.52-64.98S839.28.04,803.65.04c-21.11,0-39.85,10.21-51.62,25.99Zm51.62,71.48c17.82,0,32.26-14.55,32.26-32.49s-14.44-32.49-32.26-32.49-32.26,14.55-32.26,32.49,14.44,32.49,32.26,32.49Z"/>
  <path class="cls-1" d="m628.17,65.02c0,35.89,28.89,64.98,64.52,64.98s64.52-29.09,64.52-64.98S728.33.04,692.69.04s-64.52,29.09-64.52,64.98Zm96.78,0c0,17.94-14.44,32.49-32.26,32.49s-32.26-14.55-32.26-32.49,14.44-32.49,32.26-32.49,32.26,14.55,32.26,32.49Z"/>
  <path class="cls-1" d="m260.28,128.35h-39.35l-41.66-63.44v63.44h-39.35V2.18h39.35l41.66,64.51V2.18h39.35v126.17Z"/>
  <path class="cls-1" d="m358.53,109.28h-41.83l-6.2,19.07h-41.3L315.11,2.18h45.38l45.73,126.17h-41.48l-6.21-19.07Zm-9.57-29.76l-11.34-35.11-11.35,35.11h22.69Z"/>
  <path class="cls-1" d="m517.79,45.49c0,7.96-1.83,15.21-5.5,21.74-3.66,6.42-9.1,11.52-16.31,15.33-7.09,3.8-15.72,5.7-25.88,5.7h-15.6v40.1h-39.35V2.18h54.95c15.36,0,27.12,3.92,35.27,11.76,8.27,7.84,12.41,18.36,12.41,31.54Zm-52.12,11.58c8.15,0,12.23-3.86,12.23-11.58s-4.08-11.58-12.23-11.58h-11.17v23.17h11.17Z"/>
  <path class="cls-1" d="m0,41.66c0-1.26.06-2.52.17-3.75H.06C1.22,16.77,18.6,0,39.87,0h86.39c-1.16,21.13-18.54,37.91-39.81,37.91h-.7c-.66-.6-1.23-1.3-1.72-2.03-1.07-1.63-2.31-2.87-2.82-3.36-.07-.07-.15-.14-.22-.21-.08-.08-.16-.16-.24-.24-.92-.87-4.66-3.93-12.06-3.93h-28.8c-1.46,0-2.63,1.19-2.63,2.66s1.18,2.66,2.64,2.66h25.68c1.72,0,3.11,1.4,3.11,3.14s-1.39,3.14-3.11,3.14h-25.68c-1.46,0-2.64,1.19-2.64,2.66s1.18,2.66,2.64,2.66h25.68c1.72,0,3.11,1.4,3.11,3.14s-1.39,3.14-3.11,3.14h-25.68c-1.46,0-2.64,1.19-2.64,2.66s1.18,2.66,2.64,2.66h28.8c7.4,0,11.15-3.06,12.06-3.93.08-.08.16-.16.24-.24.07-.07.14-.14.22-.21.2-.19.5-.49.86-.88h5.3c21.51,0,38.94,17.56,38.94,39.22s-17.44,39.22-38.94,39.22H.21c2.05-20.24,19.03-36.03,39.67-36.03h3.96c.04.36.1.68.18,1,.73,2.73,2.85,4.87,5.56,5.6.72.19,1.53.25,2.56.26v5.29c0,.51,0,.99.03,1.38.03.38.12.99.54,1.52.5.63,1.25.99,2.05.99.67,0,1.2-.32,1.51-.53.32-.22.7-.52,1.09-.84l5.05-5.94c1.07-.86,1.44-1.15,1.83-1.35.38-.19.78-.34,1.2-.42.43-.09.9-.1,2.27-.1h12.79c1.7,0,3.08,0,4.19-.09,1.15-.09,2.15-.29,3.08-.77,1.48-.76,2.68-1.97,3.44-3.46.47-.94.67-1.95.77-3.11.09-1.07.09-2.39.09-4,0-1.61,0-2.93-.09-4-.09-1.15-.29-2.17-.77-3.11-.75-1.49-1.96-2.7-3.44-3.46-.93-.48-1.94-.68-3.08-.77-1.11-.09-2.49-.09-4.19-.09h-25.2c-1.7,0-3.08,0-4.19.09-1.15.09-2.15.29-3.08.77-1.48.76-2.68,1.97-3.44,3.46-.19.37-.33.76-.45,1.16h-2.79C18.52,83.32,0,64.67,0,41.66Z"/>
  <path class="cls-2" d="m55.9,89.08c0-1.46,1.17-2.64,2.62-2.64s2.62,1.18,2.62,2.64-1.17,2.64-2.62,2.64-2.62-1.18-2.62-2.64Zm9.43,0c0-1.46,1.17-2.64,2.62-2.64s2.62,1.18,2.62,2.64-1.17,2.64-2.62,2.64-2.62-1.18-2.62-2.64Zm9.43,0c0-1.46,1.17-2.64,2.62-2.64s2.62,1.18,2.62,2.64-1.17,2.64-2.62,2.64-2.62-1.18-2.62-2.64Z"/>
</svg>